<?xml version="1.0" encoding="UTF-8" standalone="no"?>
<!DOCTYPE svg PUBLIC "-//W3C//DTD SVG 1.1//EN" "http://www.w3.org/Graphics/SVG/1.1/DTD/svg11.dtd">
<!-- Created with Vectornator (http://vectornator.io/) -->
<svg height="100%" stroke-miterlimit="10" style="fill-rule:nonzero;clip-rule:evenodd;stroke-linecap:round;stroke-linejoin:round;" version="1.1" viewBox="0 0 640 106" width="100%" xml:space="preserve" xmlns="http://www.w3.org/2000/svg" xmlns:vectornator="http://vectornator.io" xmlns:xlink="http://www.w3.org/1999/xlink">
<defs/>
<clipPath id="ArtboardFrame">
<rect height="106" width="640" x="0" y="0"/>
</clipPath>
<g clip-path="url(#ArtboardFrame)" id="Layer-1" vectornator:layerName="Layer 1">
<g opacity="1" vectornator:layerName="Group 1">
<path d="M-155.306-400.72C-155.306 53.3722-155.306 53.3722-155.306 507.463C320.001 507.463 320.001 507.463 795.306 507.463C795.306 53.3722 795.306 53.3722 795.306-400.72C320.001-400.72 320.001-400.72-155.306-400.72Z" fill="#282726" fill-rule="nonzero" opacity="0" stroke="none" vectornator:layerName="path"/>
<path d="M353.669 93.0793C358.024 92.2217 378.832 93.0736 380.859 88.2138C385.207 77.7902 370.487 64.0898 380.348 55.6694C391.248 67.8223 372.161 92.8436 401.966 90.8616C401.966 81.2486 400.891 71.5817 401.966 62.0227C402.553 56.808 410.591 63.6227 410.687 66.3173C410.986 74.7193 410.337 83.1284 410.161 91.5332C417.104 90.0637 426.239 93.3135 431.803 89.1097C442.7 80.8753 433.888 62.5934 433.556 49.3232C433.188 34.5211 435.723 11.3255 413.72 12.8588C413.416 28.5681 413.416 28.5681 413.111 44.276C390.565 50.4306 413.367 2.25769 401.037 4.79049C393.645 6.30818 382.206 5.92486 379.972 12.8247C377.172 21.4808 387.807 54.2113 374.102 44.7204C362.969 37.0084 382.995 13.2024 349.334 9.97677C348.915 36.0643 350.847 62.6104 351.728 88.7235C351.782 90.3008 353.022 91.6283 353.669 93.0793Z" fill="#ebe3e3" fill-rule="nonzero" opacity="1" stroke="none" vectornator:layerName="path"/>
<path d="M228.746 75.3326C243.692 94.0958 237.828 93.4683 262.648 97.9603C264.024 98.2087 270.234 102.54 271.936 98.4032C274.198 92.906 246.39 61.1098 244.536 54.924C244.248 53.96 245.047 52.9222 245.674 52.1158C253.969 41.4394 262.997 31.2926 271.228 20.5694C272.203 19.2987 272.551 17.6816 273.212 16.2378C252.957 11.3965 250.801 21.4865 238.499 37.6218C230.084 22.5073 260.79 4.47105 226.725 13.6837C221.784 15.0211 216.993 16.844 212.028 18.1005C210.652 18.4497 209.191 18.3546 207.774 18.4809C206.901 38.7618 191.332 90.7793 222.245 95.7412C225.516 89.2644 226.012 82.0281 228.746 75.3326Z" fill="#ebe3e3" fill-rule="nonzero" opacity="1" stroke="none" vectornator:layerName="path"/>
<path d="M275.651 93.0793C280.252 96.8997 287.504 96.0749 293.583 96.5065C295.155 92.1905 297.509 88.1429 298.871 83.763C299.53 81.6419 298.625 79.0821 299.82 77.1868C308.135 63.9918 309.765 93.5165 313.6 94.7347C318.628 96.3333 342.134 97.2107 344.139 90.7083C346.246 83.8766 336.952 75.2631 334.164 69.5657C325.453 51.7679 321.369 28.1195 310.016 11.8891C307.974 8.97018 292.003 9.78226 290.15 12.7765C279.952 29.2567 281.448 69.675 275.651 93.0793Z" fill="#ebe3e3" fill-rule="nonzero" opacity="1" stroke="none" vectornator:layerName="path"/>
<path d="M47.1696 14.5511C46.3924 15.0125 44.8677 15.0622 44.838 15.9354C43.9256 42.0797 43.667 68.2609 44.3833 94.411C44.517 99.3218 53.102 94.5742 70.3893 93.0793C75.2041 92.6633 88.5221 96.6158 92.108 89.351C95.4115 82.6599 94.6581 73.4614 95.4665 66.9037C97.541 50.0699 87.3274 56.781 75.0332 47.3824C87.5116 27.597 83.8604 23.795 47.1696 14.5511Z" fill="#991c1f" fill-rule="nonzero" opacity="1" stroke="none" vectornator:layerName="Curve"/>
<path d="M551.86 76.2966C550.502 57.3418 549.368 38.3714 547.785 19.4307C546.932 9.23283 538.884 10.0634 529.673 11.8891C522.156 13.3799 524.632 42.9443 524.565 46.0507C524.405 53.4503 524.366 60.867 523.637 68.234C523.634 68.2609 519.804 82.2481 521.314 85.0933C525.011 92.0585 537.597 86.9574 545.768 86.7984C557.993 86.5613 563.041 81.0186 561.717 94.8539C570.522 97.7431 566.306 97.2277 574.255 97.073C577.405 86.0175 585.755 77.1698 574.058 75.936C572.47 65.3903 579.13 51.3207 580.349 40.5407C580.851 36.1069 581.585 31.6433 583.079 27.4167C585.196 21.4283 580.079 6.54386 571.095 13.0249C566.423 16.3954 568.356 24.0491 567.289 28.3041C563.723 42.5298 562.66 66.5885 551.86 76.2966Z" fill="#ebe3e3" fill-rule="nonzero" opacity="1" stroke="none" vectornator:layerName="path"/>
<path d="M639.01 75.1509C629.557 75.2261 618.404 80.2832 610.651 75.1168C595.428 64.9743 619.544 62.5508 623.48 62.91C627.023 48.7823 625.754 48.0582 609.468 46.5519C605.114 22.6663 621.755 43.1828 633.339 35.0648C638.638 31.3522 634.647 20.9342 638.341 15.4385C636.399 14.0329 635.933 13.2677 633.233 13.2194C621.317 13.0107 609.381 12.6785 597.474 13.2194C595.629 13.3046 592.863 15.7451 592.83 17.6561C592.417 41.9164 591.613 66.2165 592.936 90.4471C593.293 96.9707 606.453 92.5028 613.264 93.0793C621.183 93.7508 629.04 96.4994 636.948 95.7412C639.809 95.4672 639.282 77.5446 639.01 75.1509Z" fill="#ebe3e3" fill-rule="nonzero" opacity="1" stroke="none" vectornator:layerName="path"/>
<path d="M119.15 14.5511C105.888 12.7239 99.7538 14.3978 101.387 29.4796C102.307 37.9838 104.005 46.4056 104.754 54.924C105.627 64.8479 103.375 82.8998 108.469 91.749C113.656 100.759 142.384 95.0214 143.298 87.7553C144.389 79.0921 144.708 70.2599 143.763 61.5797C143.026 54.809 121.6 56.3679 121.007 50.9317C120.18 43.3191 129.219 15.9382 119.15 14.5511Z" fill="#991c1f" fill-rule="nonzero" opacity="1" stroke="none" vectornator:layerName="path"/>
<path d="M458.156 16.7688C431.934 16.2094 447.29 48.0341 448.869 66.0164C449.625 74.6114 443.349 95.7554 458.938 97.54C484.901 100.51 487.939 85.5689 485.556 62.91C484.898 56.6547 466.516 57.8699 462.8 52.262C455.609 41.4068 475.791 17.1464 458.156 16.7688Z" fill="#ebe3e3" fill-rule="nonzero" opacity="1" stroke="none" vectornator:layerName="path"/>
<path d="M30.9152 4.79049C8.32264 7.60866 11.0956 66.9207 19.3061 84.2059C21.2588 88.3175 24.7941 104.775 33.6034 103.963C49.0495 102.537 27.6547 71.1742 27.8717 61.8154C28.0812 52.8185 27.7395 43.6712 29.7412 34.8774C32.4146 23.1291 50.2606 2.37837 30.9152 4.79049Z" fill="#991c1f" fill-rule="nonzero" opacity="1" stroke="none" vectornator:layerName="path"/>
<path d="M180.45 5.23345C163.589 5.00629 181.372 33.4123 183.399 43.3731C184.761 50.0557 183.707 57.0039 183.236 63.7973C182.598 73.0341 165.188 103.959 179.337 103.815C187.568 103.733 191.03 87.477 192.989 83.763C200.066 70.348 202.974 5.53869 180.45 5.23345Z" fill="#991c1f" fill-rule="nonzero" opacity="1" stroke="none" vectornator:layerName="path"/>
<path d="M492.058 10.5574C487.473 21.7435 492.22 34.8178 489.272 46.4951C487.493 53.5398 489.353 60.9891 489.272 68.234C489.16 78.1437 485.301 88.6341 488.806 97.9603C490.058 101.285 506.441 95.1265 506.918 92.6363C511.16 70.4956 509.469 36.1168 504.596 14.1068C503.695 10.0336 493.648 6.68015 492.058 10.5574Z" fill="#ebe3e3" fill-rule="nonzero" opacity="1" stroke="none" vectornator:layerName="path"/>
<path d="M150.728 9.6701C142.875 13.1626 148.502 25.1139 148.407 32.7407C148.251 45.1634 149.106 57.6045 148.407 70.0086C147.58 84.7156 137.299 103.944 161.789 93.3873C162.676 93.004 163.682 92.2345 163.731 91.3046C164.651 74.1699 164.806 56.9968 164.66 39.8394C164.608 33.5202 167.631 2.15831 150.728 9.6701Z" fill="#991c1f" fill-rule="nonzero" opacity="1" stroke="none" vectornator:layerName="path"/>
</g>
</g>
</svg>
